<?xml version="1.0" standalone="no"?>
<!DOCTYPE svg PUBLIC "-//W3C//DTD SVG 20010904//EN"
 "http://www.w3.org/TR/2001/REC-SVG-20010904/DTD/svg10.dtd">
<svg version="1.0" xmlns="http://www.w3.org/2000/svg"
 width="1280.000000pt" height="1280.000000pt" viewBox="0 0 1280.000000 1280.000000"
 preserveAspectRatio="xMidYMid meet">
<metadata>
Created by potrace 1.11, written by Peter Selinger 2001-2013
</metadata>
<g transform="translate(0.000000,1280.000000) scale(0.100000,-0.100000)"
fill="#000000" stroke="none">
<path d="M12088 9615 c-2 -1 -53 -5 -114 -9 -60 -4 -121 -9 -135 -11 -13 -3
-44 -7 -69 -10 -104 -12 -418 -76 -439 -90 -4 -2 -21 -7 -38 -9 -58 -11 -300
-95 -448 -157 -285 -118 -579 -275 -1030 -549 -478 -290 -554 -336 -655 -395
-58 -34 -136 -78 -175 -99 -38 -21 -97 -53 -130 -71 -99 -54 -291 -116 -435
-141 -14 -2 -34 -6 -45 -9 -84 -18 -312 -24 -447 -12 -137 12 -310 60 -418
117 -125 66 -145 74 -205 76 -33 1 -78 -1 -100 -5 -30 -5 -48 -2 -73 12 -47
28 -116 25 -179 -7 -71 -36 -134 -39 -273 -10 -137 27 -180 29 -247 9 -44 -13
-55 -13 -91 -1 -52 19 -154 14 -277 -12 -115 -24 -181 -20 -252 14 -66 33
-123 35 -179 7 -31 -16 -47 -18 -79 -11 -81 19 -153 4 -266 -55 -97 -51 -216
-96 -299 -112 -147 -28 -405 -38 -518 -20 -20 3 -66 10 -102 16 -94 14 -275
64 -358 97 -119 49 -391 206 -1072 621 -102 62 -203 123 -225 136 -22 12 -89
51 -150 85 -209 120 -529 277 -715 350 -175 70 -426 147 -540 166 -19 3 -39 8
-44 11 -4 3 -25 7 -45 10 -20 2 -49 8 -66 13 -28 8 -60 13 -166 26 -24 3 -55
8 -69 11 -14 2 -128 6 -255 8 -230 4 -356 -7 -491 -44 -69 -19 -144 -111 -144
-178 0 -32 44 -106 83 -139 30 -25 35 -26 107 -19 139 13 155 14 265 16 182 2
352 -18 519 -62 22 -6 47 -12 56 -14 133 -26 451 -161 666 -285 107 -61 395
-248 464 -300 19 -15 161 -121 315 -236 154 -115 282 -211 285 -215 20 -23
532 -379 545 -379 3 0 28 -15 57 -34 144 -92 400 -216 581 -281 42 -15 77 -31
77 -34 0 -11 -50 -55 -100 -88 -66 -45 -126 -69 -260 -108 -209 -60 -276 -110
-294 -222 -9 -50 14 -101 71 -154 49 -47 97 -74 263 -149 216 -98 266 -110
435 -106 185 5 359 54 595 168 119 57 126 59 163 48 21 -6 40 -16 42 -23 2 -7
6 -70 9 -140 3 -70 7 -131 10 -135 2 -4 7 -25 10 -47 19 -115 75 -288 151
-460 15 -33 91 -190 170 -350 202 -408 262 -568 295 -780 27 -178 15 -268 -70
-527 -97 -292 -108 -373 -58 -439 15 -19 35 -52 43 -73 14 -32 47 -172 58
-242 10 -67 208 -269 321 -326 107 -55 264 -77 511 -73 105 1 204 5 220 8 17
3 46 8 65 12 114 19 197 62 306 157 115 101 178 188 188 263 19 126 38 184
101 294 21 38 24 53 20 95 -8 70 -37 179 -85 321 -36 106 -63 197 -76 260 -21
96 -1 292 49 465 48 167 94 274 294 675 66 132 138 285 160 340 94 229 141
438 142 632 1 70 2 73 31 88 16 8 36 15 44 15 8 0 66 -24 128 -54 152 -73 170
-80 263 -110 172 -54 212 -61 370 -61 155 0 197 11 413 109 207 94 273 141
318 227 33 64 -17 175 -101 225 -26 15 -106 45 -179 66 -72 22 -163 55 -201
74 -67 32 -165 107 -165 124 0 5 17 14 38 21 142 46 410 171 578 270 222 131
384 245 904 635 359 270 567 414 757 527 386 228 743 351 1108 382 67 6 284 6
330 1 153 -18 185 -18 210 -2 14 9 41 41 61 70 30 45 35 60 30 91 -8 49 -28
84 -68 121 -38 35 -68 48 -153 63 -111 20 -130 22 -260 27 -71 3 -138 6 -147
8 -9 2 -18 3 -20 1z"/>
</g>
</svg>
